<svg width="408" height="24" viewBox="0 0 408 24" fill="none" xmlns="http://www.w3.org/2000/svg">
<path d="M19.5085 6.24883C19.6199 6.24883 19.7924 6.26209 20.0258 6.28862C20.2646 6.30985 20.5352 6.36821 20.8376 6.46372C21.1401 6.55923 21.4478 6.7131 21.7609 6.92534C22.0739 7.13758 22.3631 7.43472 22.6284 7.81675C22.6019 7.83267 22.5011 7.9043 22.326 8.03164C22.1562 8.15898 21.9625 8.34469 21.745 8.58877C21.5274 8.82754 21.3364 9.13263 21.1719 9.50405C21.0127 9.87017 20.9332 10.3079 20.9332 10.8173C20.9332 11.4009 21.034 11.8944 21.2356 12.2977C21.4425 12.7009 21.6813 13.0272 21.9519 13.2766C22.2278 13.526 22.4719 13.709 22.6841 13.8258C22.9017 13.9372 23.0184 13.9956 23.0343 14.0009C23.029 14.0221 22.9892 14.1415 22.9149 14.359C22.8407 14.5713 22.7239 14.8472 22.5647 15.1868C22.4109 15.521 22.2092 15.8712 21.9599 16.2374C21.7317 16.561 21.4956 16.8714 21.2515 17.1686C21.0127 17.4657 20.7501 17.7071 20.4636 17.8928C20.1824 18.0838 19.864 18.1793 19.5085 18.1793C19.2379 18.1793 19.0071 18.1475 18.8161 18.0838C18.625 18.0202 18.442 17.9459 18.2669 17.861C18.0971 17.7814 17.9087 17.7098 17.7018 17.6461C17.4949 17.5824 17.2375 17.5506 16.9298 17.5506C16.5265 17.5506 16.1896 17.601 15.919 17.7018C15.6537 17.8079 15.4017 17.914 15.1629 18.0202C14.9241 18.1263 14.6429 18.1793 14.3192 18.1793C13.8258 18.1793 13.3907 17.9857 13.014 17.5983C12.6425 17.211 12.2605 16.7441 11.8679 16.1976C11.5654 15.7625 11.2895 15.2611 11.0401 14.6933C10.7908 14.1256 10.5918 13.5233 10.4432 12.8866C10.2946 12.2499 10.2204 11.6132 10.2204 10.9765C10.2204 9.95772 10.414 9.09814 10.8014 8.39775C11.1887 7.69206 11.6848 7.15881 12.2897 6.798C12.8946 6.43189 13.5233 6.24883 14.176 6.24883C14.5209 6.24883 14.8445 6.30985 15.147 6.43189C15.4547 6.55392 15.7412 6.67596 16.0065 6.798C16.2718 6.91473 16.5133 6.9731 16.7308 6.9731C16.9377 6.9731 17.1818 6.91473 17.463 6.798C17.7443 6.67596 18.0547 6.55392 18.3942 6.43189C18.7391 6.30985 19.1105 6.24883 19.5085 6.24883ZM18.9514 4.95947C18.6861 5.28314 18.3518 5.55109 17.9485 5.76333C17.5506 5.97557 17.1739 6.08169 16.8184 6.08169C16.7441 6.08169 16.6724 6.07373 16.6035 6.05781C16.5982 6.03659 16.5902 5.99945 16.5796 5.94639C16.5743 5.89333 16.5716 5.83496 16.5716 5.77129C16.5716 5.36803 16.6592 4.97539 16.8343 4.59336C17.0094 4.21133 17.211 3.89297 17.4392 3.63828C17.7204 3.304 18.0759 3.02544 18.5057 2.80259C18.9408 2.57974 19.3573 2.46035 19.7552 2.44443C19.7711 2.53464 19.7791 2.6381 19.7791 2.75483C19.7791 3.1634 19.7022 3.56135 19.5483 3.94868C19.3944 4.33071 19.1954 4.66764 18.9514 4.95947Z" fill="black"/>
<path d="M45.3032 17V7.84033H51.3018V9.4209H47.2202V11.8774H50.9463V13.3945H47.2202V17H45.3032ZM52.9014 17V10.0112H54.7549V17H52.9014ZM53.8345 8.93848C53.5509 8.93848 53.3055 8.83903 53.0981 8.64014C52.8908 8.43701 52.7871 8.19368 52.7871 7.91016C52.7871 7.6224 52.8908 7.37907 53.0981 7.18018C53.3055 6.97705 53.5509 6.87549 53.8345 6.87549C54.1222 6.87549 54.3677 6.97705 54.5708 7.18018C54.7739 7.37907 54.8755 7.6224 54.8755 7.91016C54.8755 8.19368 54.7739 8.43701 54.5708 8.64014C54.3677 8.83903 54.1222 8.93848 53.8345 8.93848ZM56.6211 17V10.0112H58.4746V11.0903H58.5889C58.7497 10.7095 58.9993 10.409 59.3379 10.189C59.6764 9.96891 60.0954 9.85889 60.5947 9.85889C61.3734 9.85889 61.9658 10.0874 62.3721 10.5444C62.7826 10.9972 62.9878 11.6426 62.9878 12.4805V17H61.1343V12.8994C61.1343 12.4043 61.0306 12.0298 60.8232 11.7759C60.6159 11.522 60.2922 11.395 59.8521 11.395C59.5685 11.395 59.3231 11.4606 59.1157 11.5918C58.9126 11.7188 58.7539 11.8986 58.6396 12.1313C58.5296 12.3641 58.4746 12.6392 58.4746 12.9565V17H56.6211ZM67.2788 17.1079C66.6991 17.1079 66.1955 16.964 65.7681 16.6763C65.3449 16.3843 65.0169 15.9696 64.7842 15.4321C64.5557 14.8947 64.4414 14.2536 64.4414 13.5088V13.4961C64.4414 12.7471 64.5535 12.1038 64.7778 11.5664C65.0063 11.029 65.3322 10.6164 65.7554 10.3286C66.1785 10.0409 66.6864 9.89697 67.2788 9.89697C67.5962 9.89697 67.8903 9.94775 68.1611 10.0493C68.4362 10.1466 68.6774 10.2863 68.8848 10.4683C69.0921 10.6502 69.2529 10.8703 69.3672 11.1284H69.4814V7.33887H71.335V17H69.4814V15.9146H69.3672C69.2487 16.1642 69.0879 16.3779 68.8848 16.5557C68.6859 16.7334 68.451 16.8709 68.1802 16.9683C67.9093 17.0614 67.6089 17.1079 67.2788 17.1079ZM67.9072 15.5718C68.2373 15.5718 68.5208 15.4893 68.7578 15.3242C68.9948 15.1592 69.1768 14.9222 69.3037 14.6133C69.4349 14.3044 69.5005 13.9383 69.5005 13.5151V13.5024C69.5005 13.0708 69.4349 12.7026 69.3037 12.3979C69.1768 12.089 68.9927 11.8521 68.7515 11.687C68.5145 11.5177 68.2331 11.4331 67.9072 11.4331C67.5856 11.4331 67.3042 11.5177 67.063 11.687C66.826 11.8521 66.644 12.089 66.5171 12.3979C66.3901 12.7026 66.3267 13.0687 66.3267 13.4961V13.5088C66.3267 13.9362 66.3901 14.3044 66.5171 14.6133C66.644 14.9222 66.826 15.1592 67.063 15.3242C67.3 15.4893 67.5814 15.5718 67.9072 15.5718ZM76.3242 17.146C75.6175 17.146 75.0081 17 74.4961 16.708C73.9883 16.4118 73.5968 15.9928 73.3218 15.4512C73.0467 14.9095 72.9092 14.2642 72.9092 13.5151V13.5088C72.9092 12.7682 73.0446 12.125 73.3154 11.5791C73.5905 11.0332 73.9777 10.61 74.4771 10.3096C74.9806 10.0091 75.571 9.85889 76.248 9.85889C76.9294 9.85889 77.5176 10.0049 78.0127 10.2969C78.5078 10.5889 78.8887 10.9972 79.1553 11.522C79.4219 12.0467 79.5552 12.6624 79.5552 13.3691V13.9468H73.8359V12.7852H78.6665L77.7969 13.8833V13.1406C77.7969 12.7217 77.7313 12.3726 77.6001 12.0933C77.4731 11.814 77.2954 11.6045 77.0669 11.4648C76.8426 11.321 76.5802 11.249 76.2798 11.249C75.9836 11.249 75.7191 11.3231 75.4863 11.4712C75.2578 11.6151 75.0758 11.8288 74.9404 12.1123C74.8092 12.3916 74.7437 12.7344 74.7437 13.1406V13.8896C74.7437 14.2832 74.8092 14.6196 74.9404 14.8989C75.0716 15.1782 75.2578 15.3919 75.499 15.54C75.7402 15.6882 76.028 15.7622 76.3623 15.7622C76.6331 15.7622 76.8638 15.722 77.0542 15.6416C77.2446 15.5612 77.397 15.4681 77.5112 15.3623C77.6297 15.2523 77.7101 15.1528 77.7524 15.064L77.7715 15.0259H79.498L79.4854 15.0894C79.4303 15.3094 79.3309 15.54 79.187 15.7812C79.0431 16.0182 78.8442 16.2404 78.5903 16.4478C78.3407 16.6551 78.0275 16.8244 77.6509 16.9556C77.2785 17.0825 76.8363 17.146 76.3242 17.146ZM81.0723 17V10.0112H82.9258V11.0967H83.04C83.1543 10.7158 83.3638 10.4217 83.6685 10.2144C83.9731 10.0028 84.3519 9.89697 84.8047 9.89697C84.9316 9.89697 85.0544 9.90544 85.1729 9.92236C85.2956 9.93929 85.4035 9.96045 85.4966 9.98584V11.6045C85.3569 11.5706 85.2152 11.5452 85.0713 11.5283C84.9316 11.5072 84.7899 11.4966 84.646 11.4966C84.2948 11.4966 83.9901 11.5622 83.7319 11.6934C83.4738 11.8203 83.2749 12.0023 83.1353 12.2393C82.9956 12.4762 82.9258 12.7598 82.9258 13.0898V17H81.0723Z" fill="black"/>
<path d="M45.3032 17V7.84033H51.3018V9.4209H47.2202V11.8774H50.9463V13.3945H47.2202V17H45.3032ZM52.9014 17V10.0112H54.7549V17H52.9014ZM53.8345 8.93848C53.5509 8.93848 53.3055 8.83903 53.0981 8.64014C52.8908 8.43701 52.7871 8.19368 52.7871 7.91016C52.7871 7.6224 52.8908 7.37907 53.0981 7.18018C53.3055 6.97705 53.5509 6.87549 53.8345 6.87549C54.1222 6.87549 54.3677 6.97705 54.5708 7.18018C54.7739 7.37907 54.8755 7.6224 54.8755 7.91016C54.8755 8.19368 54.7739 8.43701 54.5708 8.64014C54.3677 8.83903 54.1222 8.93848 53.8345 8.93848ZM56.6211 17V10.0112H58.4746V11.0903H58.5889C58.7497 10.7095 58.9993 10.409 59.3379 10.189C59.6764 9.96891 60.0954 9.85889 60.5947 9.85889C61.3734 9.85889 61.9658 10.0874 62.3721 10.5444C62.7826 10.9972 62.9878 11.6426 62.9878 12.4805V17H61.1343V12.8994C61.1343 12.4043 61.0306 12.0298 60.8232 11.7759C60.6159 11.522 60.2922 11.395 59.8521 11.395C59.5685 11.395 59.3231 11.4606 59.1157 11.5918C58.9126 11.7188 58.7539 11.8986 58.6396 12.1313C58.5296 12.3641 58.4746 12.6392 58.4746 12.9565V17H56.6211ZM67.2788 17.1079C66.6991 17.1079 66.1955 16.964 65.7681 16.6763C65.3449 16.3843 65.0169 15.9696 64.7842 15.4321C64.5557 14.8947 64.4414 14.2536 64.4414 13.5088V13.4961C64.4414 12.7471 64.5535 12.1038 64.7778 11.5664C65.0063 11.029 65.3322 10.6164 65.7554 10.3286C66.1785 10.0409 66.6864 9.89697 67.2788 9.89697C67.5962 9.89697 67.8903 9.94775 68.1611 10.0493C68.4362 10.1466 68.6774 10.2863 68.8848 10.4683C69.0921 10.6502 69.2529 10.8703 69.3672 11.1284H69.4814V7.33887H71.335V17H69.4814V15.9146H69.3672C69.2487 16.1642 69.0879 16.3779 68.8848 16.5557C68.6859 16.7334 68.451 16.8709 68.1802 16.9683C67.9093 17.0614 67.6089 17.1079 67.2788 17.1079ZM67.9072 15.5718C68.2373 15.5718 68.5208 15.4893 68.7578 15.3242C68.9948 15.1592 69.1768 14.9222 69.3037 14.6133C69.4349 14.3044 69.5005 13.9383 69.5005 13.5151V13.5024C69.5005 13.0708 69.4349 12.7026 69.3037 12.3979C69.1768 12.089 68.9927 11.8521 68.7515 11.687C68.5145 11.5177 68.2331 11.4331 67.9072 11.4331C67.5856 11.4331 67.3042 11.5177 67.063 11.687C66.826 11.8521 66.644 12.089 66.5171 12.3979C66.3901 12.7026 66.3267 13.0687 66.3267 13.4961V13.5088C66.3267 13.9362 66.3901 14.3044 66.5171 14.6133C66.644 14.9222 66.826 15.1592 67.063 15.3242C67.3 15.4893 67.5814 15.5718 67.9072 15.5718ZM76.3242 17.146C75.6175 17.146 75.0081 17 74.4961 16.708C73.9883 16.4118 73.5968 15.9928 73.3218 15.4512C73.0467 14.9095 72.9092 14.2642 72.9092 13.5151V13.5088C72.9092 12.7682 73.0446 12.125 73.3154 11.5791C73.5905 11.0332 73.9777 10.61 74.4771 10.3096C74.9806 10.0091 75.571 9.85889 76.248 9.85889C76.9294 9.85889 77.5176 10.0049 78.0127 10.2969C78.5078 10.5889 78.8887 10.9972 79.1553 11.522C79.4219 12.0467 79.5552 12.6624 79.5552 13.3691V13.9468H73.8359V12.7852H78.6665L77.7969 13.8833V13.1406C77.7969 12.7217 77.7313 12.3726 77.6001 12.0933C77.4731 11.814 77.2954 11.6045 77.0669 11.4648C76.8426 11.321 76.5802 11.249 76.2798 11.249C75.9836 11.249 75.7191 11.3231 75.4863 11.4712C75.2578 11.6151 75.0758 11.8288 74.9404 12.1123C74.8092 12.3916 74.7437 12.7344 74.7437 13.1406V13.8896C74.7437 14.2832 74.8092 14.6196 74.9404 14.8989C75.0716 15.1782 75.2578 15.3919 75.499 15.54C75.7402 15.6882 76.028 15.7622 76.3623 15.7622C76.6331 15.7622 76.8638 15.722 77.0542 15.6416C77.2446 15.5612 77.397 15.4681 77.5112 15.3623C77.6297 15.2523 77.7101 15.1528 77.7524 15.064L77.7715 15.0259H79.498L79.4854 15.0894C79.4303 15.3094 79.3309 15.54 79.187 15.7812C79.0431 16.0182 78.8442 16.2404 78.5903 16.4478C78.3407 16.6551 78.0275 16.8244 77.6509 16.9556C77.2785 17.0825 76.8363 17.146 76.3242 17.146ZM81.0723 17V10.0112H82.9258V11.0967H83.04C83.1543 10.7158 83.3638 10.4217 83.6685 10.2144C83.9731 10.0028 84.3519 9.89697 84.8047 9.89697C84.9316 9.89697 85.0544 9.90544 85.1729 9.92236C85.2956 9.93929 85.4035 9.96045 85.4966 9.98584V11.6045C85.3569 11.5706 85.2152 11.5452 85.0713 11.5283C84.9316 11.5072 84.7899 11.4966 84.646 11.4966C84.2948 11.4966 83.9901 11.5622 83.7319 11.6934C83.4738 11.8203 83.2749 12.0023 83.1353 12.2393C82.9956 12.4762 82.9258 12.7598 82.9258 13.0898V17H81.0723Z" fill="black" fill-opacity="0.2"/>
<path d="M109.382 17V7.84033H115.222V9.21777H111.02V11.9282H114.86V13.2612H111.02V17H109.382ZM116.891 17V10.062H118.465V17H116.891ZM117.685 8.90039C117.426 8.90039 117.204 8.80941 117.018 8.62744C116.832 8.44548 116.739 8.22754 116.739 7.97363C116.739 7.71126 116.832 7.49121 117.018 7.31348C117.204 7.13151 117.426 7.04053 117.685 7.04053C117.943 7.04053 118.163 7.13151 118.345 7.31348C118.531 7.49121 118.624 7.71126 118.624 7.97363C118.624 8.22754 118.531 8.44548 118.345 8.62744C118.163 8.80941 117.943 8.90039 117.685 8.90039ZM120.478 17V7.37695H122.058V17H120.478ZM127.016 17.1396C126.326 17.1396 125.733 16.9937 125.238 16.7017C124.747 16.4097 124.369 15.995 124.102 15.4575C123.835 14.9201 123.702 14.2832 123.702 13.5469V13.5405C123.702 12.8127 123.833 12.1779 124.096 11.6362C124.362 11.0946 124.739 10.6756 125.226 10.3794C125.712 10.0789 126.284 9.92871 126.939 9.92871C127.6 9.92871 128.167 10.0747 128.641 10.3667C129.119 10.6545 129.487 11.0586 129.745 11.5791C130.003 12.0996 130.132 12.709 130.132 13.4072V13.9277H124.496V12.8677H129.358L128.609 13.8579V13.2295C128.609 12.7682 128.539 12.3853 128.399 12.0806C128.26 11.7759 128.065 11.5474 127.815 11.395C127.57 11.2427 127.284 11.1665 126.958 11.1665C126.633 11.1665 126.343 11.2469 126.089 11.4077C125.839 11.5643 125.64 11.797 125.492 12.106C125.348 12.4106 125.276 12.7852 125.276 13.2295V13.8643C125.276 14.2917 125.348 14.6577 125.492 14.9624C125.636 15.2629 125.839 15.4956 126.102 15.6606C126.368 15.8215 126.683 15.9019 127.047 15.9019C127.331 15.9019 127.574 15.8617 127.777 15.7812C127.985 15.6966 128.152 15.5972 128.279 15.4829C128.406 15.3644 128.495 15.2523 128.545 15.1465L128.564 15.1021H130.062L130.05 15.1592C129.995 15.3835 129.893 15.612 129.745 15.8447C129.601 16.0732 129.404 16.2869 129.155 16.4858C128.909 16.6805 128.609 16.8392 128.253 16.9619C127.898 17.0804 127.485 17.1396 127.016 17.1396Z" fill="black"/>
<path d="M109.382 17V7.84033H115.222V9.21777H111.02V11.9282H114.86V13.2612H111.02V17H109.382ZM116.891 17V10.062H118.465V17H116.891ZM117.685 8.90039C117.426 8.90039 117.204 8.80941 117.018 8.62744C116.832 8.44548 116.739 8.22754 116.739 7.97363C116.739 7.71126 116.832 7.49121 117.018 7.31348C117.204 7.13151 117.426 7.04053 117.685 7.04053C117.943 7.04053 118.163 7.13151 118.345 7.31348C118.531 7.49121 118.624 7.71126 118.624 7.97363C118.624 8.22754 118.531 8.44548 118.345 8.62744C118.163 8.80941 117.943 8.90039 117.685 8.90039ZM120.478 17V7.37695H122.058V17H120.478ZM127.016 17.1396C126.326 17.1396 125.733 16.9937 125.238 16.7017C124.747 16.4097 124.369 15.995 124.102 15.4575C123.835 14.9201 123.702 14.2832 123.702 13.5469V13.5405C123.702 12.8127 123.833 12.1779 124.096 11.6362C124.362 11.0946 124.739 10.6756 125.226 10.3794C125.712 10.0789 126.284 9.92871 126.939 9.92871C127.6 9.92871 128.167 10.0747 128.641 10.3667C129.119 10.6545 129.487 11.0586 129.745 11.5791C130.003 12.0996 130.132 12.709 130.132 13.4072V13.9277H124.496V12.8677H129.358L128.609 13.8579V13.2295C128.609 12.7682 128.539 12.3853 128.399 12.0806C128.26 11.7759 128.065 11.5474 127.815 11.395C127.57 11.2427 127.284 11.1665 126.958 11.1665C126.633 11.1665 126.343 11.2469 126.089 11.4077C125.839 11.5643 125.64 11.797 125.492 12.106C125.348 12.4106 125.276 12.7852 125.276 13.2295V13.8643C125.276 14.2917 125.348 14.6577 125.492 14.9624C125.636 15.2629 125.839 15.4956 126.102 15.6606C126.368 15.8215 126.683 15.9019 127.047 15.9019C127.331 15.9019 127.574 15.8617 127.777 15.7812C127.985 15.6966 128.152 15.5972 128.279 15.4829C128.406 15.3644 128.495 15.2523 128.545 15.1465L128.564 15.1021H130.062L130.05 15.1592C129.995 15.3835 129.893 15.612 129.745 15.8447C129.601 16.0732 129.404 16.2869 129.155 16.4858C128.909 16.6805 128.609 16.8392 128.253 16.9619C127.898 17.0804 127.485 17.1396 127.016 17.1396Z" fill="black" fill-opacity="0.2"/>
<path d="M154.169 17V7.84033H160.098V9.21777H155.807V11.6997H159.863V13.001H155.807V15.6226H160.098V17H154.169ZM164.465 17.1143C163.89 17.1143 163.388 16.9704 162.961 16.6826C162.534 16.3906 162.203 15.9759 161.971 15.4385C161.738 14.901 161.622 14.2684 161.622 13.5405V13.5278C161.622 12.7915 161.736 12.1567 161.964 11.6235C162.197 11.0861 162.525 10.6735 162.948 10.3857C163.376 10.0938 163.881 9.94775 164.465 9.94775C164.783 9.94775 165.079 9.99854 165.354 10.1001C165.629 10.1974 165.87 10.3371 166.078 10.519C166.289 10.701 166.454 10.9168 166.573 11.1665H166.687V7.37695H168.261V17H166.687V15.9146H166.573C166.446 16.1642 166.279 16.38 166.071 16.562C165.868 16.7397 165.631 16.8773 165.36 16.9746C165.09 17.0677 164.791 17.1143 164.465 17.1143ZM164.96 15.7812C165.32 15.7812 165.629 15.6924 165.887 15.5146C166.15 15.3327 166.351 15.0745 166.49 14.7402C166.634 14.4017 166.706 14.0018 166.706 13.5405V13.5278C166.706 13.0623 166.634 12.6624 166.49 12.3281C166.351 11.9938 166.15 11.7357 165.887 11.5537C165.629 11.3717 165.32 11.2808 164.96 11.2808C164.605 11.2808 164.296 11.3717 164.034 11.5537C163.776 11.7314 163.577 11.9896 163.437 12.3281C163.297 12.6624 163.228 13.0623 163.228 13.5278V13.5405C163.228 14.006 163.297 14.4059 163.437 14.7402C163.577 15.0745 163.776 15.3327 164.034 15.5146C164.292 15.6924 164.601 15.7812 164.96 15.7812ZM170.273 17V10.062H171.848V17H170.273ZM171.067 8.90039C170.809 8.90039 170.587 8.80941 170.4 8.62744C170.214 8.44548 170.121 8.22754 170.121 7.97363C170.121 7.71126 170.214 7.49121 170.4 7.31348C170.587 7.13151 170.809 7.04053 171.067 7.04053C171.325 7.04053 171.545 7.13151 171.727 7.31348C171.913 7.49121 172.006 7.71126 172.006 7.97363C172.006 8.22754 171.913 8.44548 171.727 8.62744C171.545 8.80941 171.325 8.90039 171.067 8.90039ZM176.526 17.0317C175.73 17.0317 175.157 16.8857 174.806 16.5938C174.454 16.3018 174.279 15.8236 174.279 15.1592V11.2871H173.2V10.062H174.279V8.36084H175.885V10.062H177.345V11.2871H175.885V14.7847C175.885 15.1274 175.957 15.3792 176.101 15.54C176.249 15.6966 176.486 15.7749 176.812 15.7749C176.926 15.7749 177.019 15.7728 177.091 15.7686C177.167 15.7601 177.252 15.7516 177.345 15.7432V16.9619C177.235 16.9831 177.108 17 176.964 17.0127C176.824 17.0254 176.678 17.0317 176.526 17.0317Z" fill="black"/>
<path d="M154.169 17V7.84033H160.098V9.21777H155.807V11.6997H159.863V13.001H155.807V15.6226H160.098V17H154.169ZM164.465 17.1143C163.89 17.1143 163.388 16.9704 162.961 16.6826C162.534 16.3906 162.203 15.9759 161.971 15.4385C161.738 14.901 161.622 14.2684 161.622 13.5405V13.5278C161.622 12.7915 161.736 12.1567 161.964 11.6235C162.197 11.0861 162.525 10.6735 162.948 10.3857C163.376 10.0938 163.881 9.94775 164.465 9.94775C164.783 9.94775 165.079 9.99854 165.354 10.1001C165.629 10.1974 165.87 10.3371 166.078 10.519C166.289 10.701 166.454 10.9168 166.573 11.1665H166.687V7.37695H168.261V17H166.687V15.9146H166.573C166.446 16.1642 166.279 16.38 166.071 16.562C165.868 16.7397 165.631 16.8773 165.36 16.9746C165.09 17.0677 164.791 17.1143 164.465 17.1143ZM164.96 15.7812C165.32 15.7812 165.629 15.6924 165.887 15.5146C166.15 15.3327 166.351 15.0745 166.49 14.7402C166.634 14.4017 166.706 14.0018 166.706 13.5405V13.5278C166.706 13.0623 166.634 12.6624 166.49 12.3281C166.351 11.9938 166.15 11.7357 165.887 11.5537C165.629 11.3717 165.32 11.2808 164.96 11.2808C164.605 11.2808 164.296 11.3717 164.034 11.5537C163.776 11.7314 163.577 11.9896 163.437 12.3281C163.297 12.6624 163.228 13.0623 163.228 13.5278V13.5405C163.228 14.006 163.297 14.4059 163.437 14.7402C163.577 15.0745 163.776 15.3327 164.034 15.5146C164.292 15.6924 164.601 15.7812 164.96 15.7812ZM170.273 17V10.062H171.848V17H170.273ZM171.067 8.90039C170.809 8.90039 170.587 8.80941 170.4 8.62744C170.214 8.44548 170.121 8.22754 170.121 7.97363C170.121 7.71126 170.214 7.49121 170.4 7.31348C170.587 7.13151 170.809 7.04053 171.067 7.04053C171.325 7.04053 171.545 7.13151 171.727 7.31348C171.913 7.49121 172.006 7.71126 172.006 7.97363C172.006 8.22754 171.913 8.44548 171.727 8.62744C171.545 8.80941 171.325 8.90039 171.067 8.90039ZM176.526 17.0317C175.73 17.0317 175.157 16.8857 174.806 16.5938C174.454 16.3018 174.279 15.8236 174.279 15.1592V11.2871H173.2V10.062H174.279V8.36084H175.885V10.062H177.345V11.2871H175.885V14.7847C175.885 15.1274 175.957 15.3792 176.101 15.54C176.249 15.6966 176.486 15.7749 176.812 15.7749C176.926 15.7749 177.019 15.7728 177.091 15.7686C177.167 15.7601 177.252 15.7516 177.345 15.7432V16.9619C177.235 16.9831 177.108 17 176.964 17.0127C176.824 17.0254 176.678 17.0317 176.526 17.0317Z" fill="black" fill-opacity="0.2"/>
<path d="M203.643 17L200.475 7.84033H202.278L204.544 15.1084H204.652L206.924 7.84033H208.727L205.553 17H203.643ZM210.162 17V10.062H211.736V17H210.162ZM210.955 8.90039C210.697 8.90039 210.475 8.80941 210.289 8.62744C210.102 8.44548 210.009 8.22754 210.009 7.97363C210.009 7.71126 210.102 7.49121 210.289 7.31348C210.475 7.13151 210.697 7.04053 210.955 7.04053C211.213 7.04053 211.433 7.13151 211.615 7.31348C211.801 7.49121 211.895 7.71126 211.895 7.97363C211.895 8.22754 211.801 8.44548 211.615 8.62744C211.433 8.80941 211.213 8.90039 210.955 8.90039ZM216.655 17.1396C215.965 17.1396 215.373 16.9937 214.878 16.7017C214.387 16.4097 214.008 15.995 213.742 15.4575C213.475 14.9201 213.342 14.2832 213.342 13.5469V13.5405C213.342 12.8127 213.473 12.1779 213.735 11.6362C214.002 11.0946 214.379 10.6756 214.865 10.3794C215.352 10.0789 215.923 9.92871 216.579 9.92871C217.239 9.92871 217.806 10.0747 218.28 10.3667C218.758 10.6545 219.127 11.0586 219.385 11.5791C219.643 12.0996 219.772 12.709 219.772 13.4072V13.9277H214.135V12.8677H218.998L218.249 13.8579V13.2295C218.249 12.7682 218.179 12.3853 218.039 12.0806C217.899 11.7759 217.705 11.5474 217.455 11.395C217.21 11.2427 216.924 11.1665 216.598 11.1665C216.272 11.1665 215.982 11.2469 215.729 11.4077C215.479 11.5643 215.28 11.797 215.132 12.106C214.988 12.4106 214.916 12.7852 214.916 13.2295V13.8643C214.916 14.2917 214.988 14.6577 215.132 14.9624C215.276 15.2629 215.479 15.4956 215.741 15.6606C216.008 15.8215 216.323 15.9019 216.687 15.9019C216.971 15.9019 217.214 15.8617 217.417 15.7812C217.624 15.6966 217.792 15.5972 217.918 15.4829C218.045 15.3644 218.134 15.2523 218.185 15.1465L218.204 15.1021H219.702L219.689 15.1592C219.634 15.3835 219.533 15.612 219.385 15.8447C219.241 16.0732 219.044 16.2869 218.794 16.4858C218.549 16.6805 218.249 16.8392 217.893 16.9619C217.538 17.0804 217.125 17.1396 216.655 17.1396ZM222.603 17L220.718 10.062H222.305L223.454 15.2798H223.568L224.901 10.062H226.405L227.745 15.2798H227.859L229.008 10.062H230.576L228.69 17H227.04L225.688 11.9727H225.58L224.234 17H222.603Z" fill="black"/>
<path d="M203.643 17L200.475 7.84033H202.278L204.544 15.1084H204.652L206.924 7.84033H208.727L205.553 17H203.643ZM210.162 17V10.062H211.736V17H210.162ZM210.955 8.90039C210.697 8.90039 210.475 8.80941 210.289 8.62744C210.102 8.44548 210.009 8.22754 210.009 7.97363C210.009 7.71126 210.102 7.49121 210.289 7.31348C210.475 7.13151 210.697 7.04053 210.955 7.04053C211.213 7.04053 211.433 7.13151 211.615 7.31348C211.801 7.49121 211.895 7.71126 211.895 7.97363C211.895 8.22754 211.801 8.44548 211.615 8.62744C211.433 8.80941 211.213 8.90039 210.955 8.90039ZM216.655 17.1396C215.965 17.1396 215.373 16.9937 214.878 16.7017C214.387 16.4097 214.008 15.995 213.742 15.4575C213.475 14.9201 213.342 14.2832 213.342 13.5469V13.5405C213.342 12.8127 213.473 12.1779 213.735 11.6362C214.002 11.0946 214.379 10.6756 214.865 10.3794C215.352 10.0789 215.923 9.92871 216.579 9.92871C217.239 9.92871 217.806 10.0747 218.28 10.3667C218.758 10.6545 219.127 11.0586 219.385 11.5791C219.643 12.0996 219.772 12.709 219.772 13.4072V13.9277H214.135V12.8677H218.998L218.249 13.8579V13.2295C218.249 12.7682 218.179 12.3853 218.039 12.0806C217.899 11.7759 217.705 11.5474 217.455 11.395C217.21 11.2427 216.924 11.1665 216.598 11.1665C216.272 11.1665 215.982 11.2469 215.729 11.4077C215.479 11.5643 215.28 11.797 215.132 12.106C214.988 12.4106 214.916 12.7852 214.916 13.2295V13.8643C214.916 14.2917 214.988 14.6577 215.132 14.9624C215.276 15.2629 215.479 15.4956 215.741 15.6606C216.008 15.8215 216.323 15.9019 216.687 15.9019C216.971 15.9019 217.214 15.8617 217.417 15.7812C217.624 15.6966 217.792 15.5972 217.918 15.4829C218.045 15.3644 218.134 15.2523 218.185 15.1465L218.204 15.1021H219.702L219.689 15.1592C219.634 15.3835 219.533 15.612 219.385 15.8447C219.241 16.0732 219.044 16.2869 218.794 16.4858C218.549 16.6805 218.249 16.8392 217.893 16.9619C217.538 17.0804 217.125 17.1396 216.655 17.1396ZM222.603 17L220.718 10.062H222.305L223.454 15.2798H223.568L224.901 10.062H226.405L227.745 15.2798H227.859L229.008 10.062H230.576L228.69 17H227.04L225.688 11.9727H225.58L224.234 17H222.603Z" fill="black" fill-opacity="0.2"/>
<path d="M258.172 17.2285C257.508 17.2285 256.911 17.1185 256.382 16.8984C255.853 16.6742 255.401 16.3525 255.024 15.9336C254.652 15.5146 254.366 15.0111 254.167 14.4229C253.968 13.8304 253.869 13.1639 253.869 12.4233V12.4106C253.869 11.4331 254.044 10.5868 254.396 9.87158C254.747 9.15218 255.242 8.5957 255.881 8.20215C256.524 7.80859 257.279 7.61182 258.147 7.61182C258.854 7.61182 259.484 7.73877 260.039 7.99268C260.597 8.24235 261.054 8.59359 261.41 9.04639C261.765 9.49495 261.992 10.0176 262.089 10.6143L262.102 10.6777H260.477L260.458 10.6143C260.309 10.1107 260.034 9.72135 259.632 9.44629C259.23 9.16699 258.735 9.02734 258.147 9.02734C257.614 9.02734 257.15 9.16488 256.757 9.43994C256.368 9.71501 256.067 10.1043 255.855 10.6079C255.644 11.1115 255.538 11.7082 255.538 12.3979V12.4106C255.538 12.9354 255.599 13.4072 255.722 13.8262C255.845 14.2451 256.021 14.6027 256.249 14.8989C256.482 15.1951 256.761 15.4215 257.087 15.5781C257.417 15.7347 257.787 15.813 258.198 15.813C258.663 15.813 259.072 15.722 259.423 15.54C259.778 15.3581 260.056 15.1042 260.254 14.7783C260.458 14.4525 260.563 14.0737 260.572 13.6421V13.4517H258.375V12.2012H262.171V13.3438C262.171 13.9362 262.078 14.4715 261.892 14.9497C261.706 15.4279 261.437 15.8363 261.086 16.1748C260.739 16.5133 260.318 16.7736 259.823 16.9556C259.332 17.1375 258.782 17.2285 258.172 17.2285ZM266.913 17.1396C266.223 17.1396 265.629 16.9958 265.129 16.708C264.63 16.416 264.245 16.0013 263.974 15.4639C263.708 14.9264 263.574 14.2832 263.574 13.5342V13.5215C263.574 12.7809 263.71 12.1419 263.98 11.6045C264.251 11.0628 264.634 10.6481 265.129 10.3604C265.629 10.0726 266.223 9.92871 266.913 9.92871C267.603 9.92871 268.195 10.0726 268.69 10.3604C269.19 10.6481 269.575 11.0607 269.846 11.5981C270.117 12.1356 270.252 12.7767 270.252 13.5215V13.5342C270.252 14.2832 270.117 14.9264 269.846 15.4639C269.579 16.0013 269.196 16.416 268.697 16.708C268.202 16.9958 267.607 17.1396 266.913 17.1396ZM266.913 15.8574C267.277 15.8574 267.586 15.7664 267.84 15.5845C268.098 15.3983 268.295 15.1338 268.43 14.791C268.566 14.444 268.633 14.0272 268.633 13.5405V13.5278C268.633 13.0369 268.566 12.6201 268.43 12.2773C268.295 11.9303 268.098 11.6659 267.84 11.4839C267.586 11.2977 267.277 11.2046 266.913 11.2046C266.549 11.2046 266.238 11.2977 265.98 11.4839C265.722 11.6659 265.525 11.9303 265.39 12.2773C265.254 12.6201 265.187 13.0369 265.187 13.5278V13.5405C265.187 14.0272 265.254 14.444 265.39 14.791C265.525 15.138 265.72 15.4025 265.974 15.5845C266.232 15.7664 266.545 15.8574 266.913 15.8574Z" fill="black"/>
<path d="M258.172 17.2285C257.508 17.2285 256.911 17.1185 256.382 16.8984C255.853 16.6742 255.401 16.3525 255.024 15.9336C254.652 15.5146 254.366 15.0111 254.167 14.4229C253.968 13.8304 253.869 13.1639 253.869 12.4233V12.4106C253.869 11.4331 254.044 10.5868 254.396 9.87158C254.747 9.15218 255.242 8.5957 255.881 8.20215C256.524 7.80859 257.279 7.61182 258.147 7.61182C258.854 7.61182 259.484 7.73877 260.039 7.99268C260.597 8.24235 261.054 8.59359 261.41 9.04639C261.765 9.49495 261.992 10.0176 262.089 10.6143L262.102 10.6777H260.477L260.458 10.6143C260.309 10.1107 260.034 9.72135 259.632 9.44629C259.23 9.16699 258.735 9.02734 258.147 9.02734C257.614 9.02734 257.15 9.16488 256.757 9.43994C256.368 9.71501 256.067 10.1043 255.855 10.6079C255.644 11.1115 255.538 11.7082 255.538 12.3979V12.4106C255.538 12.9354 255.599 13.4072 255.722 13.8262C255.845 14.2451 256.021 14.6027 256.249 14.8989C256.482 15.1951 256.761 15.4215 257.087 15.5781C257.417 15.7347 257.787 15.813 258.198 15.813C258.663 15.813 259.072 15.722 259.423 15.54C259.778 15.3581 260.056 15.1042 260.254 14.7783C260.458 14.4525 260.563 14.0737 260.572 13.6421V13.4517H258.375V12.2012H262.171V13.3438C262.171 13.9362 262.078 14.4715 261.892 14.9497C261.706 15.4279 261.437 15.8363 261.086 16.1748C260.739 16.5133 260.318 16.7736 259.823 16.9556C259.332 17.1375 258.782 17.2285 258.172 17.2285ZM266.913 17.1396C266.223 17.1396 265.629 16.9958 265.129 16.708C264.63 16.416 264.245 16.0013 263.974 15.4639C263.708 14.9264 263.574 14.2832 263.574 13.5342V13.5215C263.574 12.7809 263.71 12.1419 263.98 11.6045C264.251 11.0628 264.634 10.6481 265.129 10.3604C265.629 10.0726 266.223 9.92871 266.913 9.92871C267.603 9.92871 268.195 10.0726 268.69 10.3604C269.19 10.6481 269.575 11.0607 269.846 11.5981C270.117 12.1356 270.252 12.7767 270.252 13.5215V13.5342C270.252 14.2832 270.117 14.9264 269.846 15.4639C269.579 16.0013 269.196 16.416 268.697 16.708C268.202 16.9958 267.607 17.1396 266.913 17.1396ZM266.913 15.8574C267.277 15.8574 267.586 15.7664 267.84 15.5845C268.098 15.3983 268.295 15.1338 268.43 14.791C268.566 14.444 268.633 14.0272 268.633 13.5405V13.5278C268.633 13.0369 268.566 12.6201 268.43 12.2773C268.295 11.9303 268.098 11.6659 267.84 11.4839C267.586 11.2977 267.277 11.2046 266.913 11.2046C266.549 11.2046 266.238 11.2977 265.98 11.4839C265.722 11.6659 265.525 11.9303 265.39 12.2773C265.254 12.6201 265.187 13.0369 265.187 13.5278V13.5405C265.187 14.0272 265.254 14.444 265.39 14.791C265.525 15.138 265.72 15.4025 265.974 15.5845C266.232 15.7664 266.545 15.8574 266.913 15.8574Z" fill="black" fill-opacity="0.2"/>
<path d="M296.51 17L294.054 7.84033H295.755L297.329 14.7148H297.418L299.227 7.84033H300.681L302.509 14.7148H302.598L304.166 7.84033H305.854L303.404 17H301.868L300.001 10.4429H299.906L298.053 17H296.51ZM307.403 17V10.062H308.977V17H307.403ZM308.196 8.90039C307.938 8.90039 307.716 8.80941 307.53 8.62744C307.344 8.44548 307.25 8.22754 307.25 7.97363C307.25 7.71126 307.344 7.49121 307.53 7.31348C307.716 7.13151 307.938 7.04053 308.196 7.04053C308.454 7.04053 308.674 7.13151 308.856 7.31348C309.043 7.49121 309.136 7.71126 309.136 7.97363C309.136 8.22754 309.043 8.44548 308.856 8.62744C308.674 8.80941 308.454 8.90039 308.196 8.90039ZM310.926 17V10.062H312.506V11.1284H312.614C312.779 10.7518 313.029 10.4577 313.363 10.2461C313.698 10.0345 314.114 9.92871 314.614 9.92871C315.388 9.92871 315.981 10.153 316.391 10.6016C316.802 11.0501 317.007 11.687 317.007 12.5122V17H315.426V12.8804C315.426 12.3387 315.312 11.9325 315.083 11.6616C314.859 11.3908 314.508 11.2554 314.03 11.2554C313.717 11.2554 313.446 11.3252 313.217 11.4648C312.989 11.6045 312.813 11.8013 312.69 12.0552C312.568 12.3091 312.506 12.6095 312.506 12.9565V17H310.926ZM321.374 17.1143C320.799 17.1143 320.297 16.9704 319.87 16.6826C319.442 16.3906 319.112 15.9759 318.879 15.4385C318.647 14.901 318.53 14.2684 318.53 13.5405V13.5278C318.53 12.7915 318.645 12.1567 318.873 11.6235C319.106 11.0861 319.434 10.6735 319.857 10.3857C320.284 10.0938 320.79 9.94775 321.374 9.94775C321.691 9.94775 321.988 9.99854 322.263 10.1001C322.538 10.1974 322.779 10.3371 322.986 10.519C323.198 10.701 323.363 10.9168 323.481 11.1665H323.596V7.37695H325.17V17H323.596V15.9146H323.481C323.354 16.1642 323.187 16.38 322.98 16.562C322.777 16.7397 322.54 16.8773 322.269 16.9746C321.998 17.0677 321.7 17.1143 321.374 17.1143ZM321.869 15.7812C322.229 15.7812 322.538 15.6924 322.796 15.5146C323.058 15.3327 323.259 15.0745 323.399 14.7402C323.543 14.4017 323.615 14.0018 323.615 13.5405V13.5278C323.615 13.0623 323.543 12.6624 323.399 12.3281C323.259 11.9938 323.058 11.7357 322.796 11.5537C322.538 11.3717 322.229 11.2808 321.869 11.2808C321.514 11.2808 321.205 11.3717 320.942 11.5537C320.684 11.7314 320.485 11.9896 320.346 12.3281C320.206 12.6624 320.136 13.0623 320.136 13.5278V13.5405C320.136 14.006 320.206 14.4059 320.346 14.7402C320.485 15.0745 320.684 15.3327 320.942 15.5146C321.201 15.6924 321.509 15.7812 321.869 15.7812ZM330.159 17.1396C329.469 17.1396 328.875 16.9958 328.375 16.708C327.876 16.416 327.491 16.0013 327.22 15.4639C326.954 14.9264 326.82 14.2832 326.82 13.5342V13.5215C326.82 12.7809 326.956 12.1419 327.227 11.6045C327.497 11.0628 327.88 10.6481 328.375 10.3604C328.875 10.0726 329.469 9.92871 330.159 9.92871C330.849 9.92871 331.441 10.0726 331.937 10.3604C332.436 10.6481 332.821 11.0607 333.092 11.5981C333.363 12.1356 333.498 12.7767 333.498 13.5215V13.5342C333.498 14.2832 333.363 14.9264 333.092 15.4639C332.825 16.0013 332.442 16.416 331.943 16.708C331.448 16.9958 330.853 17.1396 330.159 17.1396ZM330.159 15.8574C330.523 15.8574 330.832 15.7664 331.086 15.5845C331.344 15.3983 331.541 15.1338 331.676 14.791C331.812 14.444 331.879 14.0272 331.879 13.5405V13.5278C331.879 13.0369 331.812 12.6201 331.676 12.2773C331.541 11.9303 331.344 11.6659 331.086 11.4839C330.832 11.2977 330.523 11.2046 330.159 11.2046C329.795 11.2046 329.484 11.2977 329.226 11.4839C328.968 11.6659 328.771 11.9303 328.636 12.2773C328.5 12.6201 328.433 13.0369 328.433 13.5278V13.5405C328.433 14.0272 328.5 14.444 328.636 14.791C328.771 15.138 328.966 15.4025 329.22 15.5845C329.478 15.7664 329.791 15.8574 330.159 15.8574ZM336.132 17L334.247 10.062H335.834L336.983 15.2798H337.097L338.43 10.062H339.935L341.274 15.2798H341.388L342.537 10.062H344.105L342.22 17H340.569L339.217 11.9727H339.109L337.764 17H336.132Z" fill="black"/>
<path d="M296.51 17L294.054 7.84033H295.755L297.329 14.7148H297.418L299.227 7.84033H300.681L302.509 14.7148H302.598L304.166 7.84033H305.854L303.404 17H301.868L300.001 10.4429H299.906L298.053 17H296.51ZM307.403 17V10.062H308.977V17H307.403ZM308.196 8.90039C307.938 8.90039 307.716 8.80941 307.53 8.62744C307.344 8.44548 307.25 8.22754 307.25 7.97363C307.25 7.71126 307.344 7.49121 307.53 7.31348C307.716 7.13151 307.938 7.04053 308.196 7.04053C308.454 7.04053 308.674 7.13151 308.856 7.31348C309.043 7.49121 309.136 7.71126 309.136 7.97363C309.136 8.22754 309.043 8.44548 308.856 8.62744C308.674 8.80941 308.454 8.90039 308.196 8.90039ZM310.926 17V10.062H312.506V11.1284H312.614C312.779 10.7518 313.029 10.4577 313.363 10.2461C313.698 10.0345 314.114 9.92871 314.614 9.92871C315.388 9.92871 315.981 10.153 316.391 10.6016C316.802 11.0501 317.007 11.687 317.007 12.5122V17H315.426V12.8804C315.426 12.3387 315.312 11.9325 315.083 11.6616C314.859 11.3908 314.508 11.2554 314.03 11.2554C313.717 11.2554 313.446 11.3252 313.217 11.4648C312.989 11.6045 312.813 11.8013 312.69 12.0552C312.568 12.3091 312.506 12.6095 312.506 12.9565V17H310.926ZM321.374 17.1143C320.799 17.1143 320.297 16.9704 319.87 16.6826C319.442 16.3906 319.112 15.9759 318.879 15.4385C318.647 14.901 318.53 14.2684 318.53 13.5405V13.5278C318.53 12.7915 318.645 12.1567 318.873 11.6235C319.106 11.0861 319.434 10.6735 319.857 10.3857C320.284 10.0938 320.79 9.94775 321.374 9.94775C321.691 9.94775 321.988 9.99854 322.263 10.1001C322.538 10.1974 322.779 10.3371 322.986 10.519C323.198 10.701 323.363 10.9168 323.481 11.1665H323.596V7.37695H325.17V17H323.596V15.9146H323.481C323.354 16.1642 323.187 16.38 322.98 16.562C322.777 16.7397 322.54 16.8773 322.269 16.9746C321.998 17.0677 321.7 17.1143 321.374 17.1143ZM321.869 15.7812C322.229 15.7812 322.538 15.6924 322.796 15.5146C323.058 15.3327 323.259 15.0745 323.399 14.7402C323.543 14.4017 323.615 14.0018 323.615 13.5405V13.5278C323.615 13.0623 323.543 12.6624 323.399 12.3281C323.259 11.9938 323.058 11.7357 322.796 11.5537C322.538 11.3717 322.229 11.2808 321.869 11.2808C321.514 11.2808 321.205 11.3717 320.942 11.5537C320.684 11.7314 320.485 11.9896 320.346 12.3281C320.206 12.6624 320.136 13.0623 320.136 13.5278V13.5405C320.136 14.006 320.206 14.4059 320.346 14.7402C320.485 15.0745 320.684 15.3327 320.942 15.5146C321.201 15.6924 321.509 15.7812 321.869 15.7812ZM330.159 17.1396C329.469 17.1396 328.875 16.9958 328.375 16.708C327.876 16.416 327.491 16.0013 327.22 15.4639C326.954 14.9264 326.82 14.2832 326.82 13.5342V13.5215C326.82 12.7809 326.956 12.1419 327.227 11.6045C327.497 11.0628 327.88 10.6481 328.375 10.3604C328.875 10.0726 329.469 9.92871 330.159 9.92871C330.849 9.92871 331.441 10.0726 331.937 10.3604C332.436 10.6481 332.821 11.0607 333.092 11.5981C333.363 12.1356 333.498 12.7767 333.498 13.5215V13.5342C333.498 14.2832 333.363 14.9264 333.092 15.4639C332.825 16.0013 332.442 16.416 331.943 16.708C331.448 16.9958 330.853 17.1396 330.159 17.1396ZM330.159 15.8574C330.523 15.8574 330.832 15.7664 331.086 15.5845C331.344 15.3983 331.541 15.1338 331.676 14.791C331.812 14.444 331.879 14.0272 331.879 13.5405V13.5278C331.879 13.0369 331.812 12.6201 331.676 12.2773C331.541 11.9303 331.344 11.6659 331.086 11.4839C330.832 11.2977 330.523 11.2046 330.159 11.2046C329.795 11.2046 329.484 11.2977 329.226 11.4839C328.968 11.6659 328.771 11.9303 328.636 12.2773C328.5 12.6201 328.433 13.0369 328.433 13.5278V13.5405C328.433 14.0272 328.5 14.444 328.636 14.791C328.771 15.138 328.966 15.4025 329.22 15.5845C329.478 15.7664 329.791 15.8574 330.159 15.8574ZM336.132 17L334.247 10.062H335.834L336.983 15.2798H337.097L338.43 10.062H339.935L341.274 15.2798H341.388L342.537 10.062H344.105L342.22 17H340.569L339.217 11.9727H339.109L337.764 17H336.132Z" fill="black" fill-opacity="0.2"/>
<path d="M368.365 17V7.84033H370.003V11.6489H374.459V7.84033H376.09V17H374.459V13.0264H370.003V17H368.365ZM381.162 17.1396C380.472 17.1396 379.88 16.9937 379.385 16.7017C378.894 16.4097 378.515 15.995 378.249 15.4575C377.982 14.9201 377.849 14.2832 377.849 13.5469V13.5405C377.849 12.8127 377.98 12.1779 378.242 11.6362C378.509 11.0946 378.885 10.6756 379.372 10.3794C379.859 10.0789 380.43 9.92871 381.086 9.92871C381.746 9.92871 382.313 10.0747 382.787 10.3667C383.265 10.6545 383.633 11.0586 383.892 11.5791C384.15 12.0996 384.279 12.709 384.279 13.4072V13.9277H378.642V12.8677H383.504L382.755 13.8579V13.2295C382.755 12.7682 382.686 12.3853 382.546 12.0806C382.406 11.7759 382.212 11.5474 381.962 11.395C381.716 11.2427 381.431 11.1665 381.105 11.1665C380.779 11.1665 380.489 11.2469 380.235 11.4077C379.986 11.5643 379.787 11.797 379.639 12.106C379.495 12.4106 379.423 12.7852 379.423 13.2295V13.8643C379.423 14.2917 379.495 14.6577 379.639 14.9624C379.783 15.2629 379.986 15.4956 380.248 15.6606C380.515 15.8215 380.83 15.9019 381.194 15.9019C381.477 15.9019 381.721 15.8617 381.924 15.7812C382.131 15.6966 382.298 15.5972 382.425 15.4829C382.552 15.3644 382.641 15.2523 382.692 15.1465L382.711 15.1021H384.209L384.196 15.1592C384.141 15.3835 384.04 15.612 383.892 15.8447C383.748 16.0732 383.551 16.2869 383.301 16.4858C383.056 16.6805 382.755 16.8392 382.4 16.9619C382.044 17.0804 381.632 17.1396 381.162 17.1396ZM385.923 17V7.37695H387.503V17H385.923ZM389.49 19.3042V10.062H391.071V11.1475H391.179C391.306 10.8978 391.471 10.6841 391.674 10.5063C391.881 10.3286 392.12 10.1911 392.391 10.0938C392.662 9.99642 392.96 9.94775 393.286 9.94775C393.866 9.94775 394.367 10.0938 394.791 10.3857C395.218 10.6777 395.548 11.0924 395.781 11.6299C396.018 12.1631 396.136 12.7957 396.136 13.5278V13.5405C396.136 14.2769 396.02 14.9116 395.787 15.4448C395.554 15.978 395.224 16.3906 394.797 16.6826C394.374 16.9704 393.87 17.1143 393.286 17.1143C392.969 17.1143 392.673 17.0656 392.397 16.9683C392.122 16.8667 391.881 16.7249 391.674 16.543C391.466 16.361 391.301 16.1452 391.179 15.8955H391.071V19.3042H389.49ZM392.791 15.7812C393.151 15.7812 393.46 15.6924 393.718 15.5146C393.976 15.3327 394.175 15.0745 394.314 14.7402C394.454 14.4017 394.524 14.0018 394.524 13.5405V13.5278C394.524 13.0581 394.454 12.6561 394.314 12.3218C394.175 11.9875 393.976 11.7314 393.718 11.5537C393.46 11.3717 393.151 11.2808 392.791 11.2808C392.431 11.2808 392.12 11.3717 391.858 11.5537C391.6 11.7314 391.399 11.9875 391.255 12.3218C391.115 12.6561 391.045 13.056 391.045 13.5215V13.5342C391.045 13.9997 391.115 14.4017 391.255 14.7402C391.399 15.0745 391.602 15.3327 391.864 15.5146C392.127 15.6924 392.436 15.7812 392.791 15.7812Z" fill="black"/>
<path d="M368.365 17V7.84033H370.003V11.6489H374.459V7.84033H376.09V17H374.459V13.0264H370.003V17H368.365ZM381.162 17.1396C380.472 17.1396 379.88 16.9937 379.385 16.7017C378.894 16.4097 378.515 15.995 378.249 15.4575C377.982 14.9201 377.849 14.2832 377.849 13.5469V13.5405C377.849 12.8127 377.98 12.1779 378.242 11.6362C378.509 11.0946 378.885 10.6756 379.372 10.3794C379.859 10.0789 380.43 9.92871 381.086 9.92871C381.746 9.92871 382.313 10.0747 382.787 10.3667C383.265 10.6545 383.633 11.0586 383.892 11.5791C384.15 12.0996 384.279 12.709 384.279 13.4072V13.9277H378.642V12.8677H383.504L382.755 13.8579V13.2295C382.755 12.7682 382.686 12.3853 382.546 12.0806C382.406 11.7759 382.212 11.5474 381.962 11.395C381.716 11.2427 381.431 11.1665 381.105 11.1665C380.779 11.1665 380.489 11.2469 380.235 11.4077C379.986 11.5643 379.787 11.797 379.639 12.106C379.495 12.4106 379.423 12.7852 379.423 13.2295V13.8643C379.423 14.2917 379.495 14.6577 379.639 14.9624C379.783 15.2629 379.986 15.4956 380.248 15.6606C380.515 15.8215 380.83 15.9019 381.194 15.9019C381.477 15.9019 381.721 15.8617 381.924 15.7812C382.131 15.6966 382.298 15.5972 382.425 15.4829C382.552 15.3644 382.641 15.2523 382.692 15.1465L382.711 15.1021H384.209L384.196 15.1592C384.141 15.3835 384.04 15.612 383.892 15.8447C383.748 16.0732 383.551 16.2869 383.301 16.4858C383.056 16.6805 382.755 16.8392 382.4 16.9619C382.044 17.0804 381.632 17.1396 381.162 17.1396ZM385.923 17V7.37695H387.503V17H385.923ZM389.49 19.3042V10.062H391.071V11.1475H391.179C391.306 10.8978 391.471 10.6841 391.674 10.5063C391.881 10.3286 392.12 10.1911 392.391 10.0938C392.662 9.99642 392.96 9.94775 393.286 9.94775C393.866 9.94775 394.367 10.0938 394.791 10.3857C395.218 10.6777 395.548 11.0924 395.781 11.6299C396.018 12.1631 396.136 12.7957 396.136 13.5278V13.5405C396.136 14.2769 396.02 14.9116 395.787 15.4448C395.554 15.978 395.224 16.3906 394.797 16.6826C394.374 16.9704 393.87 17.1143 393.286 17.1143C392.969 17.1143 392.673 17.0656 392.397 16.9683C392.122 16.8667 391.881 16.7249 391.674 16.543C391.466 16.361 391.301 16.1452 391.179 15.8955H391.071V19.3042H389.49ZM392.791 15.7812C393.151 15.7812 393.46 15.6924 393.718 15.5146C393.976 15.3327 394.175 15.0745 394.314 14.7402C394.454 14.4017 394.524 14.0018 394.524 13.5405V13.5278C394.524 13.0581 394.454 12.6561 394.314 12.3218C394.175 11.9875 393.976 11.7314 393.718 11.5537C393.46 11.3717 393.151 11.2808 392.791 11.2808C392.431 11.2808 392.12 11.3717 391.858 11.5537C391.6 11.7314 391.399 11.9875 391.255 12.3218C391.115 12.6561 391.045 13.056 391.045 13.5215V13.5342C391.045 13.9997 391.115 14.4017 391.255 14.7402C391.399 15.0745 391.602 15.3327 391.864 15.5146C392.127 15.6924 392.436 15.7812 392.791 15.7812Z" fill="black" fill-opacity="0.2"/>
</svg>
